<?xml version='1.0' encoding='utf-8'?>
<svg xmlns="http://www.w3.org/2000/svg" width="604" zoomAndPan="magnify" viewBox="0 0 452.88 552.75" height="737" preserveAspectRatio="xMidYMid meet" version="1.0"><style>
.eye-path {
  transform-box: fill-box;
  transform-origin: center;
  animation: blink-animation 4.5s infinite ease-in-out;
}
@keyframes blink-animation {
  0%, 90%, 100% { transform: scaleY(1); }
  93%, 97% { transform: scaleY(0.15); }
}
#swaying-sign {
  transform-origin: 226.44px 0px;
  animation: sway-animation 6s infinite ease-in-out;
}
@keyframes sway-animation {
  0%, 100% { transform: rotate(-2deg); }
  50% { transform: rotate(2deg); }
}
</style><defs><clipPath id="4a54646c5b"><path d="M 0.0429688 0 L 452.71875 0 L 452.71875 552.5 L 0.0429688 552.5 Z M 0.0429688 0 " clip-rule="nonzero" /></clipPath></defs><g clip-path="url(#4a54646c5b)"><path fill="none" d="M 0.0429688 0 L 452.835938 0 L 452.835938 552.5 L 0.0429688 552.5 Z M 0.0429688 0 " fill-opacity="1" fill-rule="nonzero" /></g><g id="swaying-sign"><path fill="#dc8e4c" d="M 48.28125 0 L 48.226562 0.605469 C 47.769531 1.625 47.992188 2.699219 47.992188 3.742188 C 47.980469 146.394531 47.980469 289.050781 47.992188 431.703125 C 47.992188 432.742188 47.726562 433.824219 48.265625 434.824219 C 48.386719 434.941406 48.417969 435.078125 48.359375 435.234375 C 49.210938 436.230469 50.347656 435.691406 51.328125 435.691406 C 75.019531 435.734375 98.710938 435.714844 122.394531 435.722656 C 124.003906 436.398438 123.320312 437.6875 122.976562 438.628906 C 120.863281 444.378906 121.035156 450.082031 122.964844 455.824219 C 123.308594 456.867188 123.832031 458.050781 122.597656 458.972656 C 121.417969 459.539062 120.148438 459.46875 118.90625 459.46875 C 82.351562 459.480469 45.804688 459.480469 9.253906 459.46875 C 7.15625 459.46875 4.992188 459.605469 3.707031 457.402344 C 0.195312 445.546875 6.617188 435.039062 18.671875 435.320312 C 23.777344 435.441406 28.890625 435.253906 33.996094 435.320312 C 35.628906 435.34375 36.296875 434.839844 36.128906 433.195312 C 36.027344 432.238281 36.109375 431.265625 36.109375 430.308594 C 36.109375 286.871094 36.121094 143.425781 36.128906 -0.0117188 L 48.28125 -0.0117188 Z M 48.28125 0 " fill-opacity="1" fill-rule="nonzero" /><path fill="#dc8e4c" d="M 404.636719 327.945312 C 404.667969 302.617188 404.710938 277.285156 404.71875 251.960938 C 404.730469 169.128906 404.730469 86.300781 404.734375 3.46875 C 404.734375 2.3125 404.757812 1.15625 404.769531 0.00390625 C 408.824219 0.00390625 412.875 0.00390625 416.925781 0.00390625 C 416.933594 143.96875 416.9375 287.933594 416.964844 431.898438 C 416.964844 433.089844 416.464844 434.414062 417.515625 435.464844 C 422.886719 436.074219 428.28125 435.566406 433.660156 435.726562 C 434.527344 435.75 435.394531 435.765625 436.265625 435.726562 C 437.867188 435.644531 438.140625 436.328125 437.40625 437.625 C 437.070312 438.214844 436.605469 438.707031 436.144531 439.203125 C 432.230469 443.417969 430.765625 448.4375 431.246094 454.101562 C 431.675781 459.117188 431.363281 459.46875 426.148438 459.46875 C 383.535156 459.480469 340.921875 459.46875 298.3125 459.46875 C 292.53125 459.46875 286.742188 459.519531 280.960938 459.445312 C 276.878906 459.394531 275.714844 458.21875 276.070312 454.175781 C 276.683594 447.222656 279.523438 441.234375 284.378906 436.207031 C 287.796875 435.714844 291.210938 435.222656 294.667969 435.207031 C 302.753906 435.171875 310.84375 435.207031 318.929688 435.183594 C 326.246094 434.917969 333.574219 435.414062 340.878906 434.910156 C 342.03125 434.269531 343.050781 435.121094 344.136719 435.230469 C 345.199219 435.339844 346.199219 435.289062 347.078125 434.597656 C 348.582031 434.316406 349.3125 435.488281 350.234375 436.28125 C 358.464844 443.394531 367.347656 449.40625 377.9375 452.503906 C 379.359375 452.632812 380.75 452.910156 382.105469 453.378906 C 382.648438 453.550781 383.199219 453.707031 383.777344 453.714844 C 386.363281 453.730469 388.984375 454.050781 391.519531 453.558594 C 396.851562 452.523438 400.515625 449.53125 401.847656 444.054688 C 402.097656 443.03125 402.292969 442 402.535156 440.972656 C 403.179688 439.121094 402.46875 437.097656 403.273438 435.265625 C 404.429688 433.621094 403.820312 431.746094 403.914062 429.984375 C 404.023438 427.796875 403.878906 425.601562 404.03125 423.40625 C 404.070312 422.894531 404.1875 422.390625 404.394531 421.914062 C 407.253906 416.496094 408.730469 410.667969 409.742188 404.667969 C 411.46875 394.476562 411.023438 384.222656 410.890625 373.96875 C 410.855469 371.1875 410.835938 368.402344 410.917969 365.613281 C 409.859375 357.355469 408.757812 349.101562 406.929688 340.964844 C 406.195312 337.691406 405.414062 334.433594 404.40625 331.230469 C 404.066406 330.128906 403.832031 328.972656 404.65625 327.933594 Z M 404.636719 327.945312 " fill-opacity="1" fill-rule="nonzero" /><path fill="#3f93d5" d="M 331.964844 528.128906 C 333.105469 533.203125 333.824219 538.304688 332.277344 543.410156 C 330.445312 549.484375 324.503906 551.757812 319.023438 549.976562 C 310.105469 547.707031 304.570312 541.050781 299.011719 534.480469 C 285.71875 518.765625 276.363281 500.820312 269.261719 481.625 C 268.695312 480.097656 267.9375 478.570312 267.914062 476.921875 C 267.878906 474.527344 270.796875 475.816406 271.496094 474.238281 C 273.734375 472.648438 276.0625 471.167969 277.648438 468.824219 C 278.082031 468.191406 278.804688 467.859375 279.582031 467.699219 C 289.046875 467.390625 298.503906 467.28125 307.957031 467.738281 C 309.421875 468.136719 310.039062 469.371094 310.636719 470.578125 C 317.28125 484.179688 323.265625 498.054688 328.09375 512.421875 C 329.476562 516.527344 331.0625 520.566406 332 524.8125 C 332.242188 525.910156 332.792969 527.039062 331.972656 528.136719 Z M 331.964844 528.128906 " fill-opacity="1" fill-rule="nonzero" /><path fill="#544abf" d="M 331.964844 528.128906 C 329.34375 516.378906 324.835938 505.261719 320.394531 494.128906 C 316.910156 485.382812 312.980469 476.835938 308.726562 468.4375 C 309.691406 467.386719 310.996094 467.476562 312.226562 467.472656 C 320.515625 467.433594 328.800781 467.433594 337.089844 467.472656 C 338.320312 467.472656 339.625 467.375 340.625 468.367188 C 349.890625 482.539062 358.5 497.074219 364.542969 512.953125 C 366.421875 517.894531 367.851562 522.972656 366.800781 528.417969 C 365.195312 536.707031 359.140625 540.703125 350.933594 538.738281 C 343.617188 536.984375 337.800781 532.539062 331.964844 528.128906 Z M 331.964844 528.128906 " fill-opacity="1" fill-rule="nonzero" /><path fill="#c06e38" d="M 340.621094 468.363281 C 329.984375 468.386719 319.351562 468.410156 308.71875 468.433594 C 299.71875 468.390625 290.722656 468.347656 281.722656 468.300781 C 280.671875 468.300781 279.621094 468.265625 278.570312 468.242188 C 276.324219 468.648438 275.207031 467.074219 274.175781 465.585938 C 268.746094 457.699219 269.921875 443.4375 277.902344 437.078125 C 279.484375 435.820312 281.121094 434.96875 283.207031 435.453125 C 283.847656 435.699219 284.367188 436.054688 284.390625 436.835938 C 281.09375 441.578125 277.945312 446.398438 277.132812 452.308594 C 277.082031 452.683594 276.949219 453.054688 276.902344 453.429688 C 276.363281 458.160156 276.710938 458.546875 281.457031 458.546875 C 330.027344 458.546875 378.589844 458.546875 427.160156 458.546875 C 430.847656 458.546875 430.695312 458.558594 430.3125 454.796875 C 429.683594 448.601562 431.074219 442.972656 435.628906 438.410156 C 436.230469 437.804688 436.804688 437.167969 437.902344 436.003906 C 433.167969 436.003906 429.011719 436.101562 424.855469 435.96875 C 422.40625 435.886719 419.882812 436.613281 417.503906 435.460938 C 424.144531 435.449219 430.789062 435.28125 437.421875 435.472656 C 444.164062 435.667969 448.464844 439.695312 450.277344 446.976562 C 452.691406 456.6875 447.871094 465.453125 438.882812 467.699219 C 438.140625 467.398438 437.359375 467.511719 436.59375 467.511719 C 405.621094 467.511719 374.644531 467.507812 343.667969 467.511719 C 342.824219 467.511719 341.933594 467.292969 341.132812 467.789062 C 340.960938 467.976562 340.792969 468.167969 340.621094 468.351562 Z M 340.621094 468.363281 " fill-opacity="1" fill-rule="nonzero" /><path fill="#3f93d4" d="M 274.484375 509.015625 C 273.5 510.84375 274.296875 512.757812 274.238281 514.625 C 274.007812 522.554688 269.996094 525.691406 262.1875 524 C 258.484375 523.195312 255.480469 521.21875 252.800781 518.675781 C 242.21875 508.617188 236.09375 495.875 231.140625 482.457031 C 229.449219 477.882812 227.875 473.257812 226.984375 468.4375 C 227.101562 468.316406 227.210938 468.195312 227.324219 468.074219 C 229.582031 467.269531 231.824219 467.402344 234.046875 468.191406 C 234.746094 468.511719 235.324219 469.011719 235.910156 469.503906 C 241.859375 474.523438 246.78125 474.882812 253.4375 470.769531 C 254.386719 470.191406 255.398438 469.929688 256.503906 470.128906 C 257.996094 470.585938 259.191406 471.488281 260.167969 472.683594 C 260.898438 473.683594 261.683594 474.632812 261.960938 475.917969 C 264.25 486.519531 268.742188 496.261719 273.597656 505.871094 C 274.082031 506.828125 275.132812 507.695312 274.484375 509 Z M 274.484375 509.015625 " fill-opacity="1" fill-rule="nonzero" /><path fill="#bf6c36" d="M 3.707031 457.421875 C 3.738281 457.132812 3.726562 456.832031 3.816406 456.566406 C 3.894531 456.332031 4.21875 455.988281 4.246094 456.535156 C 4.375 458.941406 6.132812 458.542969 7.625 458.554688 C 11.480469 458.578125 15.335938 458.566406 19.191406 458.558594 C 53.789062 458.542969 88.378906 458.527344 122.976562 458.515625 C 125.949219 460.429688 126.574219 463.707031 127.6875 466.6875 C 127.933594 467.351562 127.242188 467.640625 126.632812 467.761719 C 91.53125 467.890625 56.4375 467.761719 21.34375 467.859375 C 19.132812 467.867188 16.949219 467.21875 14.738281 467.699219 C 8.992188 466.511719 4.644531 462.464844 3.707031 457.433594 Z M 3.707031 457.421875 " fill-opacity="1" fill-rule="nonzero" /><path fill="#fda533" d="M 127.578125 467.210938 C 126.042969 464.316406 124.507812 461.410156 122.96875 458.515625 C 119.894531 451.03125 119.769531 443.550781 122.964844 436.066406 C 122.953125 435.734375 123.328125 435.585938 123.367188 435.28125 C 125.1875 431.023438 128.085938 427.675781 131.921875 425.121094 C 132.246094 423.496094 133.671875 423.5625 134.828125 423.222656 C 136.34375 423.027344 137.710938 423.425781 138.789062 424.484375 C 140.835938 426.5 144.03125 427.277344 145.113281 430.335938 C 142.488281 434.242188 139.789062 438.097656 139.054688 442.9375 C 137.976562 450.039062 139.261719 456.6875 142.523438 463.042969 C 143.789062 465.523438 146.476562 466.65625 147.828125 469.015625 C 142.742188 473.644531 135.089844 475.042969 129.1875 469.179688 C 128.214844 468.214844 127.089844 468.351562 125.960938 468.351562 C 96.679688 468.316406 67.390625 468.324219 38.105469 468.246094 C 31.097656 468.230469 24.078125 468.625 17.074219 467.933594 C 18.011719 467.171875 19.117188 467.566406 20.132812 467.566406 C 55.027344 467.542969 89.914062 467.546875 124.804688 467.523438 C 125.722656 467.523438 126.726562 467.902344 127.589844 467.222656 Z M 127.578125 467.210938 " fill-opacity="1" fill-rule="nonzero" /><path fill="#fda532" d="M 226.984375 468.4375 C 218.71875 468.378906 210.457031 468.292969 202.191406 468.277344 C 192.769531 468.253906 183.347656 468.277344 173.921875 468.339844 C 172.863281 468.347656 171.6875 467.980469 170.839844 469.277344 C 167.578125 474.25 159.289062 475.332031 153.101562 471.484375 C 151.726562 470.628906 150.398438 469.683594 149.058594 468.773438 C 143.035156 460.457031 140.523438 451.523438 144.136719 441.457031 C 145.335938 438.125 147.285156 435.351562 149.894531 433.003906 C 151.894531 432.429688 153.257812 433.984375 154.933594 434.5 C 158.023438 436.199219 161.207031 437.679688 164.582031 438.722656 C 165.902344 439.132812 167.09375 439.675781 167.332031 441.265625 C 166.917969 443.742188 165.808594 446.011719 165.339844 448.480469 C 164.453125 453.113281 165.171875 457.449219 167.128906 461.675781 C 168.800781 465.296875 171.492188 466.992188 175.5625 466.976562 C 191.253906 466.894531 206.945312 466.917969 222.636719 466.976562 C 224.152344 466.976562 225.964844 466.367188 227.054688 468.160156 C 227.09375 468.265625 227.070312 468.359375 226.988281 468.433594 Z M 226.984375 468.4375 " fill-opacity="1" fill-rule="nonzero" /><path fill="#3072bf" d="M 274.484375 509.015625 C 268.832031 498.355469 263.542969 487.558594 261.210938 475.59375 C 260.988281 474.464844 259.851562 473.996094 259.515625 472.972656 C 259.671875 472.863281 259.882812 472.683594 260.007812 472.734375 C 263.757812 474.394531 267.78125 474.460938 271.761719 474.761719 C 271.976562 475.996094 270.992188 475.933594 270.34375 475.875 C 268.050781 475.660156 268.339844 476.851562 268.863281 478.316406 C 274.503906 494.210938 281.621094 509.328125 291.351562 523.21875 C 295.828125 529.617188 300.894531 535.445312 306.070312 541.230469 C 309.542969 545.109375 313.460938 548.234375 318.769531 549.183594 C 319.179688 549.257812 319.167969 549.308594 319.023438 549.988281 C 316.402344 550.019531 314.265625 548.609375 312.058594 547.515625 C 300.765625 541.917969 292.03125 533.339844 284.433594 523.492188 C 280.855469 518.855469 277.398438 514.121094 274.484375 509.023438 Z M 274.484375 509.015625 " fill-opacity="1" fill-rule="nonzero" /><path fill="#f56929" d="M 150.164062 433.28125 C 147.371094 436.703125 144.824219 440.253906 143.851562 444.695312 C 142.066406 452.867188 144.296875 460.183594 148.570312 467.0625 C 148.917969 467.621094 149.554688 468.011719 149.050781 468.773438 C 148.640625 468.847656 148.234375 468.929688 147.824219 469.003906 C 142.332031 466.363281 140.34375 461.273438 138.996094 455.910156 C 136.59375 446.378906 137.648438 437.535156 144.917969 430.179688 C 147.292969 430.15625 149.3125 430.734375 150.164062 433.28125 Z M 150.164062 433.28125 " fill-opacity="1" fill-rule="nonzero" /><path fill="#9b4c1c" d="M 127.578125 467.210938 C 126.796875 467.628906 126.050781 467.835938 125.34375 467.835938 C 90.109375 467.824219 54.882812 467.8125 19.648438 467.808594 C 18.785156 467.808594 17.921875 467.882812 17.0625 467.921875 C 16.285156 467.84375 15.511719 467.761719 14.734375 467.6875 C 15.863281 466.855469 17.160156 467.253906 18.375 467.253906 C 54.777344 467.222656 91.175781 467.21875 127.578125 467.210938 Z M 127.578125 467.210938 " fill-opacity="1" fill-rule="nonzero" /><path fill="#9a4d1d" d="M 341.132812 467.800781 C 341.984375 466.84375 343.125 467.253906 344.132812 467.253906 C 374.792969 467.230469 405.453125 467.234375 436.121094 467.253906 C 437.050781 467.253906 438.066406 466.953125 438.886719 467.703125 C 437.0625 467.8125 435.234375 468.011719 433.410156 468.011719 C 403.613281 468.035156 373.808594 468.035156 344.011719 468.023438 C 343.054688 468.023438 342.09375 467.878906 341.140625 467.800781 Z M 341.132812 467.800781 " fill-opacity="1" fill-rule="nonzero" /><path fill="#fe6b56" d="M 97.222656 283.394531 C 89.449219 272.058594 87.71875 259.480469 89.519531 246.160156 C 90.113281 241.753906 90.894531 237.328125 92.730469 233.324219 C 94.9375 228.519531 94.628906 223.898438 93.964844 218.832031 C 88.671875 178.515625 99.09375 143.089844 127.007812 112.96875 C 144.738281 93.839844 166.382812 81.734375 191.492188 75.589844 C 208.484375 71.433594 225.726562 70.65625 243.140625 72.671875 C 273.878906 76.222656 299.625 89.921875 321.269531 111.476562 C 338.75 128.890625 349.5625 150.105469 355.175781 174.125 C 358.515625 188.421875 359.8125 202.980469 361.757812 217.457031 C 363.691406 231.855469 368.007812 245.574219 372.75 259.21875 C 375.246094 266.382812 378.15625 273.410156 380.0625 280.78125 C 378.816406 280.941406 378.179688 279.96875 377.375 279.328125 C 371.261719 274.445312 364.578125 270.59375 356.78125 269.355469 C 348.75 268.085938 341.070312 269.4375 333.945312 273.597656 C 326.472656 277.957031 320.480469 283.828125 315.695312 290.976562 C 315.105469 291.859375 314.460938 292.707031 313.601562 293.351562 C 308.980469 298.53125 305.878906 304.636719 303.570312 311.050781 C 299.800781 321.507812 297.613281 332.328125 297.9375 343.523438 C 298.195312 352.601562 299.792969 361.472656 302.347656 370.175781 C 303.644531 374.605469 305.085938 378.984375 306.832031 383.265625 C 307.191406 384.148438 307.550781 385.0625 307.234375 386.058594 C 305.582031 387.472656 304.34375 385.929688 303.226562 385.253906 C 301.636719 384.292969 300.089844 383.144531 298.867188 381.660156 C 294.152344 376.71875 290.644531 371.003906 288.136719 364.671875 C 285.421875 357.816406 283.738281 350.726562 283.609375 343.335938 C 283.523438 338.613281 283.574219 333.890625 283.609375 329.171875 C 284.4375 322.878906 285.335938 316.601562 285.382812 310.222656 C 285.410156 306.445312 284.9375 302.734375 284.546875 299.003906 C 284.183594 295.46875 284.410156 294.839844 287.664062 293.484375 C 297.855469 289.242188 307.445312 283.910156 316.25 277.257812 C 329.992188 266.871094 338.027344 253.152344 338.921875 235.847656 C 339.253906 229.507812 337.839844 223.136719 334.378906 217.578125 C 332.359375 214.339844 331.445312 211.007812 331.601562 207.195312 C 332.035156 196.871094 330.511719 186.820312 326.535156 177.242188 C 320.777344 163.355469 311.25 153.472656 296.171875 150.035156 C 279.367188 146.207031 264.875 153.132812 255.902344 167.085938 C 249.375 177.238281 246.847656 188.664062 245.835938 200.492188 C 245.222656 207.675781 245.042969 214.898438 244.070312 222.054688 C 243.933594 223.054688 244.101562 224.261719 242.695312 224.609375 C 240.789062 223.621094 241.269531 221.660156 240.816406 220.074219 C 239.746094 208.507812 236.894531 197.570312 229.617188 188.160156 C 220.554688 176.4375 204.449219 172.316406 191.925781 181.019531 C 185.371094 185.570312 180.992188 192.015625 177.75 199.253906 C 177.160156 200.578125 176.886719 202.308594 174.925781 202.480469 C 173.910156 201.683594 173.859375 200.5 173.640625 199.363281 C 171.984375 190.851562 168.980469 182.886719 163.867188 175.796875 C 161.164062 172.042969 157.746094 169.132812 153.523438 167.242188 C 142.445312 162.269531 133.144531 166.226562 124.914062 173.5625 C 114.582031 182.777344 109.628906 194.789062 107.988281 208.351562 C 107.410156 213.160156 107.230469 217.941406 107.894531 222.734375 C 108.175781 224.726562 107.167969 226.257812 106.136719 227.789062 C 100.824219 235.714844 98.507812 244.59375 98.269531 253.988281 C 97.933594 267.496094 103.28125 278.476562 113.703125 287.027344 C 114.222656 287.453125 114.773438 287.847656 115.289062 288.28125 C 118.128906 290.664062 118.195312 291.089844 116.351562 294.320312 C 111.976562 301.988281 108.671875 310.0625 107.074219 318.785156 C 106.882812 319.820312 106.835938 320.90625 106.121094 321.773438 C 104.144531 328.136719 103.121094 334.660156 102.90625 341.292969 C 102.773438 345.429688 102.914062 349.574219 102.871094 353.714844 C 102.84375 356.515625 102.871094 359.292969 103.757812 361.992188 C 103.996094 362.726562 104.046875 363.507812 104.011719 364.28125 C 103.964844 365.3125 104.25 366.808594 103.082031 367.054688 C 101.574219 367.363281 101.5625 365.761719 101.199219 364.714844 C 97.886719 355.289062 96.4375 345.53125 96.789062 335.601562 C 96.96875 330.65625 98.078125 325.722656 98.675781 320.796875 C 99.707031 312.21875 103.167969 304.609375 106.6875 296.949219 C 107.335938 295.539062 107.003906 294.347656 105.96875 293.261719 C 102.9375 290.078125 99.53125 287.222656 97.21875 283.398438 Z M 97.222656 283.394531 " fill-opacity="1" fill-rule="nonzero" /><path fill="#67d870" d="M 313.433594 292.601562 C 317.03125 287.863281 320.464844 282.976562 324.980469 279.039062 C 333.90625 271.25 344.09375 266.703125 356.148438 268.414062 C 364.378906 269.582031 371.539062 273.515625 377.894531 278.847656 C 378.628906 279.46875 379.335938 280.125 380.058594 280.773438 C 386.875 288.210938 391.972656 296.730469 396.042969 305.910156 C 395.945312 308.390625 397.53125 310.390625 398.003906 312.714844 C 399.386719 319.40625 398.628906 325.597656 393.519531 330.597656 C 390.472656 333.578125 386.960938 334.628906 382.6875 332.9375 C 379.597656 331.710938 376.824219 330.078125 373.839844 327.8125 C 374.421875 331.488281 375.582031 334.671875 375.816406 338.019531 C 376.152344 342.785156 376.019531 347.355469 373.21875 351.59375 C 369.53125 357.167969 364.050781 358.113281 357.371094 356.191406 C 351.679688 354.554688 348.300781 349.910156 344.601562 345.742188 C 343.847656 344.890625 343.398438 343.769531 341.984375 342.980469 C 341.71875 346.464844 342.039062 349.816406 340.867188 353.027344 C 339.265625 357.429688 336.464844 360.691406 332.34375 362.75 C 328.242188 364.792969 324.414062 363.324219 320.824219 361.257812 C 315.878906 358.414062 312.796875 353.8125 310.121094 349.003906 C 307.503906 344.292969 305.019531 339.472656 303.875 334.148438 C 303.632812 333.035156 302.789062 334.050781 302.621094 333.433594 C 301.804688 331.691406 301.964844 329.816406 302.195312 328.046875 C 303.332031 319.210938 304.417969 310.363281 308.070312 302.074219 C 309.546875 298.71875 311.320312 295.574219 313.445312 292.601562 Z M 313.433594 292.601562 " fill-opacity="1" fill-rule="nonzero" /><path fill="#38c0bb" d="M 303.09375 333.53125 C 304.871094 332.449219 304.484375 334.230469 304.703125 334.863281 C 306.867188 341.125 309.476562 347.164062 313.292969 352.628906 C 316.308594 356.953125 319.742188 360.695312 325.042969 362.367188 C 329.214844 363.6875 332.585938 362.460938 335.59375 359.714844 C 339.773438 355.902344 341.332031 351.039062 341.203125 345.46875 C 341.175781 344.132812 340.324219 342.078125 341.816406 341.570312 C 343.074219 341.140625 343.605469 343.292969 344.449219 344.28125 C 348.230469 348.730469 351.664062 353.601562 357.597656 355.457031 C 365.792969 358.019531 372.722656 355.347656 374.734375 345.671875 C 376.003906 339.574219 374.816406 333.757812 372.628906 328.066406 C 372.414062 327.503906 372.21875 326.839844 372.734375 326.476562 C 373.328125 326.054688 373.769531 326.691406 374.183594 327.058594 C 377.144531 329.703125 380.605469 331.511719 384.328125 332.738281 C 387.320312 333.726562 389.976562 332.582031 392.347656 330.742188 C 397.40625 326.816406 398.882812 318.347656 397.160156 312.300781 C 396.59375 310.304688 394.710938 308.304688 396.054688 305.902344 C 399.132812 312.257812 400.96875 319.09375 403.578125 325.632812 C 403.890625 326.417969 404.289062 327.167969 404.648438 327.9375 C 405.078125 332.242188 406.824219 336.214844 407.683594 340.425781 C 409.359375 348.660156 410.917969 356.902344 411.449219 365.304688 C 408.082031 371.8125 403.226562 372.597656 396.996094 367.578125 C 394.972656 365.941406 393.234375 364.003906 391.300781 361.296875 C 392.742188 370.039062 393.742188 378.140625 391.636719 386.242188 C 391.441406 387.253906 391.105469 388.230469 390.808594 389.222656 C 389.589844 392.632812 387.878906 395.734375 384.820312 397.851562 C 380.691406 400.707031 376.246094 400.972656 371.582031 399.335938 C 364.726562 396.9375 359.402344 392.425781 354.707031 387.074219 C 353.121094 385.269531 351.554688 383.445312 350.089844 381.34375 C 349.835938 383.039062 350.003906 384.554688 350.238281 386.074219 C 350.980469 390.8125 350.199219 395.269531 347.773438 399.421875 C 345.164062 403.894531 339.964844 405.953125 335.085938 404.183594 C 329.136719 402.019531 324.5 397.984375 320.40625 393.269531 C 317.753906 390.214844 315.410156 386.90625 312.644531 383.945312 C 308.851562 376.863281 306.492188 369.261719 304.929688 361.4375 C 303.332031 353.457031 301.699219 345.445312 302.105469 337.222656 C 302.167969 335.929688 301.773438 334.484375 303.101562 333.519531 Z M 303.09375 333.53125 " fill-opacity="1" fill-rule="nonzero" /><path fill="#37c0bb" d="M 82.25 365.617188 C 77.816406 353.652344 76.800781 341.242188 77.949219 328.679688 C 79.300781 313.828125 84.730469 300.542969 94.515625 289.152344 C 95.636719 287.847656 96.921875 286.667969 98.132812 285.433594 C 100.390625 285.9375 101.039062 288.253906 102.652344 289.496094 C 103.460938 290.121094 103.984375 291.144531 104.804688 291.808594 C 109.023438 295.238281 107.785156 295.277344 106.113281 298.691406 C 103.421875 304.179688 100.863281 309.855469 99.785156 315.789062 C 97.832031 326.554688 95.988281 337.390625 97.859375 348.503906 C 98.734375 353.691406 99.867188 358.792969 100.96875 363.917969 C 100.011719 367.730469 97.71875 370.570312 94.015625 371.703125 C 89.558594 373.066406 86.605469 370.039062 83.691406 367.3125 C 83.140625 366.796875 83.164062 365.816406 82.25 365.617188 Z M 82.25 365.617188 " fill-opacity="1" fill-rule="nonzero" /><path fill="#3184d2" d="M 82.25 365.617188 C 83.378906 364.664062 83.359375 365.996094 83.800781 366.398438 C 85.980469 368.371094 87.910156 370.839844 91.058594 371.207031 C 95.082031 371.675781 98.125 369.292969 100.433594 364.242188 C 102.425781 365.304688 102.210938 367.609375 103.167969 369.257812 C 104.40625 371.390625 105.023438 373.855469 106.097656 376.105469 C 107.382812 378.609375 108.671875 381.113281 109.535156 383.800781 C 113.285156 394.222656 118.785156 403.617188 126.066406 411.960938 C 128.554688 415.402344 131.859375 418.070312 134.789062 421.09375 C 135.40625 421.734375 136.785156 422.359375 135.230469 423.460938 C 134.121094 424.007812 133.023438 424.554688 131.917969 425.101562 C 107.269531 412.015625 91.214844 391.765625 82.242188 365.613281 Z M 82.25 365.617188 " fill-opacity="1" fill-rule="nonzero" /><path fill="#b6783e" d="M 48.269531 434.832031 C 47.316406 433.972656 47.722656 432.839844 47.722656 431.835938 C 47.703125 289.101562 47.703125 146.371094 47.722656 3.632812 C 47.722656 2.621094 47.339844 1.492188 48.226562 0.605469 C 48.261719 19.976562 48.328125 39.339844 48.328125 58.707031 C 48.339844 183.019531 48.328125 307.335938 48.328125 431.648438 C 48.328125 432.707031 48.289062 433.765625 48.265625 434.824219 Z M 48.269531 434.832031 " fill-opacity="1" fill-rule="nonzero" /><path fill="#d97462" d="M 105.703125 376.746094 C 103.855469 373.519531 102.78125 369.972656 101.535156 366.507812 C 101.246094 365.707031 101.140625 364.835938 100.433594 364.242188 C 99.566406 359.148438 97.953125 354.207031 97.394531 349.046875 C 96.613281 341.761719 96.582031 334.484375 97.496094 327.191406 C 98.425781 319.75 99.855469 312.445312 102.691406 305.476562 C 103.917969 302.460938 105.238281 299.476562 106.667969 296.550781 C 107.144531 295.574219 107.582031 294.710938 106.605469 294.011719 C 103.265625 291.640625 101.207031 288.03125 98.125 285.425781 C 97.824219 284.746094 97.523438 284.066406 97.222656 283.386719 C 100.703125 286.910156 104.238281 290.386719 107.617188 294 C 108.3125 294.742188 108.144531 296.089844 107.605469 297.039062 C 104.949219 301.761719 103.0625 306.828125 101.261719 311.90625 C 99.828125 315.964844 99.457031 320.308594 98.878906 324.574219 C 98.160156 329.875 97.050781 335.179688 97.53125 340.5625 C 98.242188 348.511719 98.820312 356.496094 101.90625 364.003906 C 102.257812 364.867188 101.800781 365.960938 103 366.949219 C 103.429688 365.304688 103.347656 363.855469 103.105469 362.449219 C 101.371094 352.53125 101.851562 342.644531 102.980469 332.691406 C 103.417969 328.875 104.777344 325.300781 105.125 321.511719 C 105.125 321.46875 105.28125 321.402344 105.359375 321.414062 C 105.449219 321.425781 105.527344 321.507812 105.609375 321.554688 C 106.582031 322.605469 106.332031 323.839844 106.148438 325.0625 C 103.386719 337.933594 102.535156 350.871094 104.824219 363.902344 C 105.332031 366.820312 105.921875 369.738281 106.601562 372.632812 C 106.941406 374.089844 107.421875 375.683594 105.707031 376.742188 Z M 105.703125 376.746094 " fill-opacity="1" fill-rule="nonzero" /><path fill="#a87842" d="M 123.367188 435.277344 C 123.234375 435.535156 123.097656 435.800781 122.964844 436.0625 C 99.140625 436.042969 75.320312 436.03125 51.496094 435.976562 C 50.441406 435.976562 49.140625 436.582031 48.359375 435.242188 C 64.511719 435.277344 80.667969 435.328125 96.824219 435.339844 C 105.667969 435.34375 114.519531 435.296875 123.363281 435.277344 Z M 123.367188 435.277344 " fill-opacity="1" fill-rule="nonzero" /><path fill="#3284d3" d="M 313.476562 383.96875 C 317.316406 387.742188 320.058594 392.472656 324.046875 396.09375 C 327.53125 399.253906 331.148438 402.25 335.78125 403.667969 C 339.972656 404.945312 344.792969 403.109375 346.992188 399.367188 C 349.464844 395.148438 350.257812 390.679688 349.410156 385.828125 C 349.074219 383.894531 349.355469 381.859375 349.355469 379.371094 C 351.445312 381.957031 353.203125 384.269531 355.105469 386.457031 C 359.835938 391.882812 365.21875 396.480469 372.152344 398.828125 C 379.359375 401.269531 386.074219 398.191406 389.265625 391.195312 C 389.578125 390.511719 389.929688 389.847656 390.257812 389.167969 C 391.832031 387.71875 391.886719 389.3125 392.164062 390.179688 C 394.496094 397.597656 396.671875 405.050781 398.816406 412.523438 C 399.976562 416.578125 401.105469 420.648438 402.667969 424.574219 C 402.847656 425.710938 403.050781 426.84375 402.882812 428.003906 C 402.1875 431.550781 403.445312 435.054688 403.050781 438.613281 C 402.710938 441.691406 402.34375 444.703125 400.632812 447.386719 C 398.496094 450.746094 396.09375 451.40625 392.550781 449.46875 C 388.324219 447.15625 385.199219 443.535156 382.125 440.007812 C 375.019531 431.847656 369.050781 422.828125 363.921875 414.941406 C 369.617188 428.382812 377.292969 442.234375 389.085938 453.78125 C 386.867188 454.550781 385.125 454.003906 383.453125 454.296875 C 382.949219 454.449219 382.480469 454.4375 382.121094 453.980469 C 380.796875 452.8125 379.214844 453.042969 377.652344 453.175781 C 366.777344 450.019531 357.695312 443.816406 349.285156 436.472656 C 348.578125 435.855469 348.039062 434.992188 347.015625 434.800781 C 342.128906 431.679688 338.761719 427.058594 335.265625 422.621094 C 326.960938 412.066406 320.089844 400.601562 314.386719 388.457031 C 313.761719 387.128906 312.394531 385.746094 313.472656 383.980469 Z M 313.476562 383.96875 " fill-opacity="1" fill-rule="nonzero" /><path fill="#e64731" d="M 313.476562 383.96875 C 316.683594 392.90625 321.484375 401.035156 326.5 409.007812 C 332.128906 417.941406 338.34375 426.460938 346.273438 433.574219 C 346.609375 433.875 346.773438 434.375 347.019531 434.785156 C 345.792969 437.136719 344.023438 436.039062 342.355469 435.496094 C 342.113281 435.414062 341.9375 435.132812 341.730469 434.941406 C 340.027344 435.652344 339.3125 434.199219 338.367188 433.359375 C 332.0625 427.757812 327.277344 420.855469 322.132812 414.265625 C 316.617188 405.882812 311.613281 397.207031 307.179688 388.210938 C 306.898438 387.5625 306.496094 386.925781 306.953125 386.195312 C 305.425781 381.765625 303.839844 377.351562 302.386719 372.894531 C 298.707031 361.617188 296.535156 350.03125 297.195312 338.167969 C 298.085938 322.132812 302.339844 307.066406 311.898438 293.828125 C 312.292969 293.285156 312.707031 292.746094 313.433594 292.59375 C 311.238281 297.367188 308.511719 301.917969 307.023438 306.984375 C 304.484375 315.644531 302.71875 324.433594 303.089844 333.53125 C 302.492188 341.449219 303.589844 349.210938 304.917969 357 C 306.375 365.554688 308.964844 373.722656 312.222656 381.714844 C 312.546875 382.507812 313.050781 383.21875 313.472656 383.96875 Z M 313.476562 383.96875 " fill-opacity="1" fill-rule="nonzero" /><path fill="#3285d2" d="M 390.925781 386.289062 C 392.992188 377.554688 391.910156 368.875 390.207031 359.898438 C 391.8125 360.570312 392.488281 361.675781 393.28125 362.699219 C 395.609375 365.695312 398.375 368.121094 401.957031 369.582031 C 405.5625 371.050781 408.261719 370.019531 410.097656 366.5625 C 410.292969 366.195312 409.859375 364.410156 411.4375 365.3125 C 411.949219 377.863281 412.574219 390.402344 410.789062 402.941406 C 410.042969 408.183594 408.828125 413.25 407.097656 418.226562 C 406.59375 419.671875 406.148438 421.152344 404.839844 422.136719 C 404.347656 422.726562 403.828125 423.066406 403.21875 422.28125 C 402.734375 421.648438 402.476562 420.914062 402.414062 420.144531 C 401.496094 408.46875 396.824219 398.074219 391.445312 387.921875 C 391.167969 387.398438 391.296875 386.769531 390.925781 386.292969 Z M 390.925781 386.289062 " fill-opacity="1" fill-rule="nonzero" /><path fill="#2c66bc" d="M 383.464844 454.285156 C 384.898438 453.492188 386.496094 454.246094 388.125 453.753906 C 375.945312 441.867188 368.199219 427.3125 362.414062 411.488281 C 363.234375 412.75 364.03125 414.019531 364.882812 415.257812 C 365.804688 416.601562 366.8125 417.882812 367.71875 419.238281 C 374.074219 428.6875 380.453125 438.121094 388.929688 445.886719 C 389.703125 446.601562 390.527344 447.265625 391.394531 447.855469 C 396.4375 451.273438 400.71875 449.480469 401.863281 443.492188 C 402.613281 439.601562 402.769531 435.722656 402 431.792969 C 401.75 430.539062 401.460938 429.121094 402.363281 427.902344 C 403.761719 430.277344 404.09375 432.800781 403.371094 435.453125 C 403.109375 437.359375 403.664062 439.308594 403.050781 441.191406 C 402.3125 449.730469 397.148438 454.515625 388.609375 454.523438 C 386.898438 454.523438 385.183594 454.359375 383.46875 454.273438 Z M 383.464844 454.285156 " fill-opacity="1" fill-rule="nonzero" /><path fill="#4192d4" d="M 322.566406 413.992188 C 325.234375 417.339844 327.953125 420.648438 330.558594 424.050781 C 333.367188 427.714844 336.71875 430.855469 339.988281 434.078125 C 340.484375 434.570312 341.011719 434.941406 341.738281 434.945312 C 341.550781 435.933594 340.808594 436.027344 340.003906 436.023438 C 333.035156 435.976562 326.074219 435.929688 319.105469 435.882812 C 318.882812 435.644531 318.75 435.367188 318.695312 435.054688 C 319.238281 431.914062 321.320312 429.335938 321.820312 426.148438 C 322.367188 422.617188 322.6875 419.117188 322.027344 415.566406 C 321.921875 415.011719 321.464844 414.1875 322.570312 413.996094 Z M 322.566406 413.992188 " fill-opacity="1" fill-rule="nonzero" /><path fill="#2b67bc" d="M 390.925781 386.289062 C 395.277344 392.199219 397.800781 398.964844 400.128906 405.824219 C 401.726562 410.527344 403.105469 415.257812 403.183594 420.296875 C 403.195312 420.886719 402.957031 422.753906 404.839844 422.136719 C 404.789062 422.523438 404.730469 422.917969 404.679688 423.304688 C 404.179688 424.164062 403.878906 425.265625 402.523438 425.097656 C 400.011719 421.898438 399.695312 417.859375 398.496094 414.1875 C 396.09375 406.835938 394.589844 399.203125 391.644531 392.03125 C 391.261719 391.105469 392.847656 389.035156 390.277344 389.167969 C 390.496094 388.210938 390.710938 387.25 390.929688 386.292969 Z M 390.925781 386.289062 " fill-opacity="1" fill-rule="nonzero" /><path fill="#4fcbb6" d="M 319.074219 435.414062 C 319.097656 435.570312 319.109375 435.726562 319.105469 435.882812 C 311.058594 435.964844 303.011719 435.988281 294.972656 436.15625 C 291.441406 436.230469 287.917969 436.605469 284.390625 436.84375 C 284 436.523438 283.609375 436.207031 283.21875 435.894531 C 282.332031 434.59375 281.363281 433.316406 281.863281 431.574219 C 282.101562 431.277344 282.394531 431.210938 282.742188 431.359375 C 284.902344 434.394531 288.007812 434.644531 291.402344 434.59375 C 299.25 434.464844 307.105469 434.542969 314.960938 434.5625 C 316.378906 434.5625 317.867188 434.363281 319.070312 435.425781 Z M 319.074219 435.414062 " fill-opacity="1" fill-rule="nonzero" /><path fill="#2c66bc" d="M 377.664062 453.164062 C 379.25 452.539062 380.796875 452.511719 382.265625 453.480469 C 382.316406 453.515625 382.328125 453.660156 382.304688 453.742188 C 382.285156 453.828125 382.191406 453.894531 382.132812 453.96875 C 380.644531 453.703125 379.152344 453.429688 377.664062 453.164062 Z M 377.664062 453.164062 " fill-opacity="1" fill-rule="nonzero" /><path fill="#3284d3" d="M 403.082031 435.464844 C 403.226562 435.535156 403.371094 435.605469 403.519531 435.667969 C 403.347656 437.515625 403.960938 439.421875 403.046875 441.199219 C 403.058594 439.289062 403.070312 437.375 403.085938 435.464844 Z M 403.082031 435.464844 " fill-opacity="1" fill-rule="nonzero" /><path fill="#fda532" d="M 282.019531 432.082031 C 282.34375 433.378906 283.664062 434.355469 283.210938 435.886719 C 278.285156 435.90625 275.800781 439.460938 274.054688 443.113281 C 270.773438 449.964844 270.496094 457.089844 274.082031 464.078125 C 275.078125 466.015625 276.496094 467.476562 278.5625 468.246094 C 277.226562 471.386719 274.5 473.082031 271.757812 474.753906 C 267.390625 476.078125 263.359375 475.152344 259.503906 472.96875 C 258.90625 471.707031 257.417969 471.417969 256.644531 470.351562 C 256.140625 469.867188 256.1875 469.328125 256.492188 468.761719 C 259.9375 465.582031 260.753906 465.535156 265.535156 468.398438 C 266.269531 468.835938 266.871094 469.53125 267.824219 469.480469 C 268.6875 469.433594 269.625 469.480469 270.128906 468.59375 C 270.574219 467.8125 270.066406 467.183594 269.753906 466.464844 C 268.039062 462.550781 265.726562 458.820312 266.25 454.226562 C 266.441406 452.578125 266.488281 450.996094 267.613281 449.636719 C 268.660156 448.371094 268.566406 447.21875 267.109375 446.242188 C 265.246094 444.984375 265.742188 444.003906 267.304688 442.726562 C 270.160156 440.382812 273.542969 438.675781 275.859375 435.644531 C 274.308594 435.847656 273.40625 437.300781 271.890625 437.523438 C 270.835938 437.6875 269.660156 438.0625 269.105469 436.8125 C 268.5625 435.59375 269.421875 434.835938 270.414062 434.292969 C 271.34375 433.785156 272.480469 433.4375 271.773438 431.972656 C 271.121094 430.625 270.027344 430.285156 268.648438 430.542969 C 267.867188 430.695312 267.253906 431.132812 266.664062 431.65625 C 263.167969 434.730469 261.773438 434.675781 258.488281 431.347656 C 255.339844 431.320312 253.417969 433.496094 251.660156 435.535156 C 248.1875 439.566406 246.410156 444.25 246.28125 449.722656 C 246.125 456.460938 247.214844 462.667969 251.515625 468.074219 C 252.265625 469.015625 253.59375 469.558594 253.667969 471 C 249.257812 475.4375 241.640625 475.429688 236.378906 470.949219 C 235.515625 470.214844 234.785156 469.324219 233.992188 468.503906 C 232.894531 467.835938 232.160156 466.882812 231.5625 465.742188 C 229.410156 461.625 228.171875 457.195312 227.105469 452.722656 C 226.441406 449.929688 227.582031 447.234375 228.042969 444.511719 C 229.617188 439.640625 231.882812 435.152344 234.730469 430.863281 C 239.082031 424.320312 250.675781 422.9375 256.335938 426.929688 C 258.542969 428.484375 260.335938 428.359375 262.710938 427.375 C 268.746094 424.871094 274.5625 425.4375 279.929688 429.421875 C 280.902344 430.144531 281.664062 430.921875 282.011719 432.082031 Z M 282.019531 432.082031 " fill-opacity="1" fill-rule="nonzero" /><path fill="#bd6935" d="M 228.796875 444.644531 C 226.117188 453.5625 230.039062 461.042969 234 468.507812 C 231.679688 468.390625 229.363281 468.277344 227.046875 468.160156 C 226.050781 467.632812 224.96875 467.882812 223.933594 467.882812 C 207.398438 467.867188 190.859375 467.84375 174.324219 467.890625 C 170.984375 467.902344 168.738281 466.28125 167.140625 463.585938 C 162.671875 456.042969 163.371094 448.421875 166.9375 440.792969 C 167.710938 439.820312 168.648438 440.203125 169.570312 440.492188 C 185.179688 445.507812 201.265625 446.074219 217.457031 445.570312 C 220.425781 445.476562 223.304688 444.464844 226.296875 444.375 C 227.15625 444.34375 228.015625 444.082031 228.796875 444.640625 Z M 228.796875 444.644531 " fill-opacity="1" fill-rule="nonzero" /><path fill="#f56a2b" d="M 253.679688 471.007812 C 248.285156 466.859375 246.136719 461.085938 245.632812 454.582031 C 245.125 447.953125 245.832031 441.621094 250.144531 436.078125 C 251.972656 433.730469 254.269531 432.125 256.683594 430.574219 C 257.441406 430.085938 258.304688 429.929688 259 430.804688 C 259.171875 431.539062 258.800781 432.105469 258.433594 432.667969 C 251.265625 443.503906 251.335938 454.851562 256.042969 466.523438 C 256.355469 467.304688 256.96875 468.023438 256.667969 468.964844 C 256.667969 469.425781 256.667969 469.894531 256.667969 470.359375 C 255.675781 470.574219 254.679688 470.785156 253.691406 471 Z M 253.679688 471.007812 " fill-opacity="1" fill-rule="nonzero" /><path fill="#58ccb0" d="M 135.234375 423.464844 C 135.957031 422.453125 134.960938 422.226562 134.476562 421.714844 C 131.546875 418.597656 127.929688 416.121094 125.730469 412.328125 C 126.796875 412.019531 127.976562 412.261719 128.902344 411.269531 C 129.800781 410.300781 131.0625 410.621094 132.171875 410.996094 C 135.558594 412.128906 138.992188 413.085938 142.476562 413.859375 C 142.945312 413.964844 143.523438 414.027344 143.808594 414.378906 C 147.257812 418.648438 152.363281 417.601562 156.847656 418.417969 C 170.839844 420.957031 184.9375 418.015625 198.953125 419.074219 C 206.882812 419.671875 214.394531 417.15625 222.152344 416.558594 C 223.234375 416.480469 224.136719 415.835938 225.015625 415.246094 C 226.421875 414.304688 228.089844 414.253906 229.617188 413.761719 C 236.152344 411.648438 243.339844 411.546875 249.246094 407.480469 C 249.726562 407.148438 250.230469 406.820312 250.796875 406.714844 C 260.347656 405.015625 268.261719 399.511719 276.863281 395.589844 C 280.710938 393.835938 284.367188 391.898438 287.980469 389.65625 C 290.648438 387.996094 293.539062 385.859375 297.046875 385.683594 C 297.707031 385.648438 298.128906 385.347656 298.261719 384.679688 C 298.816406 381.921875 300.1875 382.691406 301.699219 383.867188 C 302.386719 384.398438 303.03125 384.96875 303.625 385.605469 C 303.90625 387.46875 302.765625 388.597656 301.335938 389.214844 C 299.261719 390.113281 297.6875 392.03125 295.753906 392.675781 C 291.222656 394.183594 287.929688 397.195312 284.257812 399.960938 C 280.78125 402.582031 276.230469 403.605469 272.148438 405.324219 C 270.863281 405.859375 269.625 406.363281 269.078125 407.734375 C 268.292969 409.683594 266.691406 410.445312 264.796875 410.722656 C 260.675781 411.332031 256.96875 413.460938 252.8125 413.933594 C 252.433594 413.976562 252.042969 414.132812 251.757812 414.386719 C 246.738281 418.816406 240.488281 418.671875 234.363281 419.777344 C 229.179688 420.710938 223.570312 420.921875 218.753906 423.828125 C 216.292969 425.316406 213.429688 425.53125 210.609375 425.089844 C 208.75 424.800781 206.972656 424.882812 205.183594 425.390625 C 203.6875 425.820312 202.128906 425.988281 200.601562 425.722656 C 198.5625 425.367188 196.554688 425.558594 194.5625 425.890625 C 189.480469 426.738281 184.375 426.398438 179.277344 426.265625 C 178.421875 426.242188 177.351562 425.800781 176.804688 426.570312 C 175.128906 428.9375 172.859375 428.316406 170.542969 428.214844 C 165.824219 428 161.097656 428.140625 156.371094 428.148438 C 155.984375 428.148438 155.527344 428.074219 155.234375 428.265625 C 152.140625 430.214844 149.351562 429.5625 146.476562 427.636719 C 145.507812 426.988281 144.476562 426.589844 143.964844 425.460938 C 143.683594 424.847656 143.28125 424.292969 142.691406 423.917969 C 142.167969 423.582031 141.554688 423.414062 141.097656 423.882812 C 140.546875 424.441406 141.027344 424.933594 141.4375 425.339844 C 142.273438 426.148438 143.203125 426.835938 144.230469 427.386719 C 147.292969 429.023438 150.011719 431.226562 153.191406 432.660156 C 154 433.027344 154.628906 433.621094 154.863281 434.535156 C 154.796875 434.675781 154.730469 434.820312 154.664062 434.957031 C 152.917969 435.050781 151.8125 433.394531 150.140625 433.285156 C 148.542969 431.996094 146.851562 430.867188 144.902344 430.1875 C 141.792969 427.773438 138.996094 424.910156 135.21875 423.472656 Z M 135.234375 423.464844 " fill-opacity="1" fill-rule="nonzero" /><path fill="#58ccb0" d="M 228.796875 444.644531 C 220.835938 446.363281 212.769531 446.542969 204.664062 446.484375 C 192.273438 446.398438 180.140625 444.730469 168.34375 440.839844 C 167.914062 440.699219 167.40625 440.796875 166.929688 440.792969 C 163.53125 438.640625 159.40625 438.132812 155.996094 435.988281 C 155.511719 435.679688 154.964844 435.488281 154.683594 434.945312 C 154.683594 434.945312 154.792969 434.800781 154.792969 434.800781 C 155.980469 434.0625 157.027344 434.726562 158.0625 435.175781 C 167.464844 439.285156 177.1875 442.289062 187.378906 443.570312 C 198.472656 444.957031 209.574219 445.703125 220.761719 444.394531 C 224.785156 443.929688 227.152344 441.699219 229.101562 438.625 C 230.238281 436.835938 231.046875 434.863281 232.101562 433.027344 C 235.429688 427.21875 240.257812 424.089844 247.160156 424.152344 C 251.398438 424.195312 255.445312 424.410156 258.824219 427.328125 C 260.335938 428.046875 261.382812 426.601562 262.714844 426.492188 C 263.398438 426.191406 264.023438 425.753906 264.757812 425.570312 C 268.003906 425.320312 271.253906 425.1875 274.496094 425.558594 C 275.253906 425.75 275.90625 426.167969 276.578125 426.53125 C 278.007812 427.214844 279.378906 428.011719 280.664062 428.925781 C 281.46875 429.496094 282.402344 430.117188 282.101562 431.382812 C 282.070312 431.621094 282.042969 431.851562 282.011719 432.089844 C 275.6875 426.101562 268.628906 425.066406 260.878906 429.039062 C 259.671875 429.660156 258.699219 429.417969 257.703125 428.636719 C 250.222656 422.761719 237.464844 424.988281 233.078125 434.71875 C 231.597656 438.011719 229.75 441.132812 228.796875 444.652344 Z M 228.796875 444.644531 " fill-opacity="1" fill-rule="nonzero" /><path fill="#fed45b" d="M 105.605469 324.773438 C 105.605469 323.707031 105.605469 322.628906 105.605469 321.558594 C 107.109375 315.734375 108.109375 309.789062 110.621094 304.238281 C 112.289062 300.558594 113.804688 296.804688 116.0625 293.453125 C 117.285156 291.640625 117.128906 290.605469 115.335938 289.257812 C 109.980469 285.238281 105.417969 280.449219 102.175781 274.515625 C 98.074219 266.996094 97.066406 258.90625 97.738281 250.53125 C 98.460938 241.453125 101.25 233.070312 106.632812 225.632812 C 107.238281 224.800781 107.316406 223.859375 107.203125 222.875 C 105.449219 207.792969 108.574219 193.800781 117.109375 181.234375 C 122.65625 173.074219 129.832031 166.796875 139.910156 164.8125 C 150.152344 162.796875 157.964844 167.097656 164.035156 174.859375 C 169.894531 182.347656 173.070312 191.082031 174.5 200.453125 C 174.601562 201.109375 174.824219 201.753906 174.992188 202.40625 C 176.078125 203.59375 175.71875 204.917969 175.316406 206.21875 C 171.589844 218.46875 172.335938 230.585938 176.71875 242.480469 C 178.460938 247.210938 181.199219 251.507812 185.152344 254.730469 C 188.746094 257.664062 192.746094 259.035156 196.964844 255.609375 C 197.265625 255.367188 197.660156 255.28125 198.042969 255.222656 C 198.347656 255.210938 198.640625 255.269531 198.917969 255.402344 C 201.359375 257.699219 203.246094 260.582031 206.269531 262.277344 C 214.992188 267.175781 225.324219 264.925781 231.8125 256.695312 C 238.109375 248.945312 240.535156 239.808594 241.34375 230.105469 C 241.511719 228.109375 241.375 226.078125 242.625 224.332031 C 243.777344 222.347656 243.585938 220.074219 243.789062 217.945312 C 244.523438 210.308594 244.691406 202.601562 245.679688 195 C 247.515625 180.910156 251.804688 167.773438 262.699219 157.796875 C 270.707031 150.460938 280.21875 147.382812 291.058594 148.511719 C 309.578125 150.429688 320.882812 161.328125 327.625 177.867188 C 331.730469 187.9375 332.757812 198.496094 332.433594 209.242188 C 332.371094 211.324219 332.734375 213.222656 333.8125 215.027344 C 343.199219 230.769531 340.574219 246.074219 331.988281 261.085938 C 325.34375 272.710938 314.746094 279.976562 303.515625 286.515625 C 298.265625 289.578125 292.789062 292.167969 287.164062 294.441406 C 285.664062 295.046875 284.726562 295.757812 285.050781 297.617188 C 286.835938 307.765625 286.289062 317.882812 284.433594 327.960938 C 284.378906 328.246094 284.390625 328.539062 284.367188 328.824219 C 282.613281 335.632812 279.027344 341.304688 273.878906 346.058594 C 265.515625 353.785156 253.59375 355.214844 244.523438 349.535156 C 244.03125 349.226562 243.550781 348.910156 243.09375 348.550781 C 240.234375 346.277344 240.164062 346.261719 239.0625 349.875 C 236.882812 357.042969 232.820312 362.75 226.636719 367.082031 C 217.191406 373.703125 203.519531 372.4375 194.96875 364.234375 C 193.40625 362.738281 192.273438 359.871094 190.273438 360.003906 C 188.503906 360.117188 187.59375 363.003906 186.160156 364.554688 C 178.039062 373.316406 164.113281 376.304688 152.066406 368.679688 C 141.628906 362.066406 135.886719 352.195312 134.324219 339.933594 C 134.269531 339.472656 134.355469 338.96875 133.898438 338.570312 C 132.804688 338.691406 132.503906 339.75 131.90625 340.417969 C 125.625 347.433594 115.722656 347.019531 110.269531 339.34375 C 107.195312 335.023438 105.332031 330.207031 105.59375 324.761719 Z M 105.605469 324.773438 " fill-opacity="1" fill-rule="nonzero" /><path fill="#70cd99" d="M 105.605469 324.773438 C 106.160156 326.988281 106.667969 329.222656 107.277344 331.425781 C 107.941406 333.847656 108.949219 336.109375 110.386719 338.210938 C 116.035156 346.464844 125.578125 346.910156 131.957031 339.164062 C 132.675781 338.292969 133.179688 337.203125 134.707031 336.710938 C 135.175781 339.882812 135.230469 343.039062 136.246094 346.042969 C 140.847656 359.574219 148.761719 369.800781 163.792969 371.941406 C 173.5625 373.328125 181.660156 369.5 187.675781 361.605469 C 190.28125 358.1875 190.28125 358.117188 193.023438 361.1875 C 199.84375 368.824219 208.242188 372.269531 218.335938 369.980469 C 226.265625 368.179688 231.875 362.988281 235.757812 355.949219 C 237.425781 352.921875 238.683594 349.703125 239.265625 346.273438 C 239.523438 344.792969 240.078125 344.671875 241.089844 345.699219 C 252.71875 357.5625 270.5 352.675781 279.429688 338.378906 C 281.070312 335.757812 282.511719 333.050781 283.25 330.03125 C 283.414062 329.378906 283.847656 329.082031 284.378906 328.828125 C 284.386719 333.339844 284.269531 337.863281 284.433594 342.375 C 284.9375 356.664062 289.058594 369.613281 298.890625 380.378906 C 299.199219 380.714844 299.347656 381.199219 299.570312 381.617188 C 299.101562 381.910156 298.597656 381.835938 298.214844 381.550781 C 295.214844 379.347656 292.144531 380.292969 289.121094 381.394531 C 287.222656 382.097656 285.386719 383.027344 283.398438 383.375 C 280.398438 383.90625 277.863281 384.914062 276.605469 388.011719 C 276.148438 389.140625 275.074219 389.679688 273.78125 389.683594 C 270.210938 389.695312 266.976562 390.613281 264.195312 392.996094 C 263.089844 393.945312 261.59375 394.21875 260.21875 394.667969 C 259.121094 395.027344 257.882812 395.21875 257.101562 396.109375 C 254.757812 398.789062 251.613281 399.066406 248.402344 399.210938 C 247.144531 399.265625 245.777344 399.109375 244.71875 399.777344 C 239.324219 403.1875 233.054688 402.683594 227.15625 403.882812 C 222.921875 404.746094 218.585938 405.195312 214.476562 406.640625 C 213.929688 406.832031 213.285156 406.882812 212.847656 407.226562 C 208.726562 410.480469 203.921875 409.539062 199.28125 409.429688 C 197.324219 409.382812 195.414062 409.480469 193.5625 410.011719 C 191.496094 410.609375 189.414062 410.886719 187.28125 410.765625 C 183.277344 410.539062 179.238281 410.578125 175.289062 410.417969 C 170.855469 410.238281 166.425781 408.925781 161.8125 409.117188 C 159.875 409.199219 157.855469 408.417969 155.816406 408.433594 C 154.945312 408.441406 154.058594 408.359375 153.269531 407.976562 C 146.683594 404.8125 139.511719 403.945312 132.457031 402.550781 C 129.632812 401.992188 126.863281 400.996094 124.601562 399.097656 C 123.042969 397.796875 121.367188 397.050781 119.332031 397.128906 C 116.496094 397.230469 114.679688 395.792969 113.335938 393.398438 C 111.648438 390.367188 110.714844 387 109.011719 383.988281 C 107.90625 381.574219 106.800781 379.164062 105.695312 376.75 C 107.0625 373.300781 105.101562 370.164062 104.511719 366.972656 C 102.855469 358.023438 102.175781 349.058594 103.035156 340.027344 C 103.519531 334.902344 103.886719 329.714844 105.605469 324.78125 Z M 105.605469 324.773438 " fill-opacity="1" fill-rule="nonzero" /><path fill="#fda733" d="M 198.691406 255.628906 C 198.40625 255.671875 198.070312 255.636719 197.851562 255.78125 C 192.207031 259.523438 186.871094 258.714844 182.507812 253.480469 C 176.464844 246.234375 173.6875 237.785156 172.621094 228.496094 C 171.707031 220.527344 172.425781 212.859375 174.890625 205.277344 C 175.171875 204.394531 174.980469 203.367188 175.003906 202.402344 C 177.382812 199.359375 178.5 195.621094 180.542969 192.378906 C 185.515625 184.484375 191.761719 178.050781 201.1875 176.136719 C 209.296875 174.496094 217.003906 176.226562 223.707031 181.371094 C 232.332031 187.996094 236.820312 197.035156 239.429688 207.367188 C 240.472656 211.488281 240.90625 215.617188 241.511719 219.761719 C 241.320312 219.828125 241.117188 219.878906 240.953125 219.808594 C 235.410156 217.542969 235.296875 217.445312 231.308594 222.082031 C 227.261719 226.789062 222.972656 231.082031 217.167969 233.613281 C 215.390625 234.390625 213.609375 235.0625 211.71875 235.4375 C 208.035156 236.175781 205.597656 238.4375 203.90625 241.664062 C 201.585938 246.09375 199.808594 250.726562 198.679688 255.609375 Z M 198.691406 255.628906 " fill-opacity="1" fill-rule="nonzero" /><path fill="#5fccac" d="M 109.019531 383.980469 C 110.761719 385.503906 111.109375 387.757812 112 389.71875 C 113.199219 392.355469 114.222656 395.066406 117.300781 396.203125 C 118.863281 396.773438 120.519531 395.613281 122.03125 396.625 C 122.484375 396.925781 123.277344 396.820312 123.613281 397.179688 C 127.464844 401.273438 132.804688 401.199219 137.6875 402.65625 C 142.671875 404.148438 148.1875 403.761719 152.710938 406.902344 C 155.152344 408.597656 158.21875 407.070312 160.863281 408.183594 C 162.773438 408.988281 164.796875 409.042969 166.714844 408.039062 C 167.886719 407.433594 168.960938 407.746094 170.003906 408.347656 C 172.910156 410.023438 175.929688 410.480469 179.136719 409.320312 C 179.671875 409.128906 180.332031 408.820312 180.789062 408.984375 C 185.824219 410.789062 190.761719 409.644531 195.808594 408.917969 C 199.605469 408.375 203.535156 408.746094 207.40625 408.757812 C 208.277344 408.757812 209.203125 409.019531 209.875 408.324219 C 212.902344 405.183594 217.074219 405.078125 220.917969 404.269531 C 226.507812 403.097656 232.140625 402.015625 237.882812 401.835938 C 237.976562 401.835938 238.085938 401.816406 238.160156 401.769531 C 243 398.964844 248.371094 398.238281 253.800781 397.722656 C 253.894531 397.710938 254.027344 397.6875 254.066406 397.625 C 256.695312 393.34375 262.378906 394.332031 265.671875 390.8125 C 267.222656 389.152344 270.429688 388.507812 272.902344 388.851562 C 275.148438 389.15625 275.871094 388.445312 276.425781 386.652344 C 276.914062 385.082031 277.984375 383.945312 279.582031 383.535156 C 283.207031 382.605469 286.742188 381.496094 290.234375 380.078125 C 293.445312 378.769531 296.820312 378.867188 299.558594 381.617188 C 301.960938 383.242188 303.949219 385.53125 306.941406 386.203125 C 307.164062 386.796875 307.378906 387.394531 307.597656 387.988281 C 306.5625 388.457031 305.9375 387.589844 305.148438 387.242188 C 304.5 386.832031 303.9375 386.324219 303.480469 385.710938 C 302.839844 385.289062 302.238281 384.785156 301.546875 384.472656 C 300.796875 384.132812 300.429688 382.808594 299.453125 383.304688 C 298.417969 383.832031 299.210938 384.796875 299.273438 385.605469 C 299.390625 387.242188 298.183594 386.972656 297.3125 386.601562 C 295.785156 385.960938 294.722656 386.480469 293.75 387.609375 C 292.90625 388.585938 291.96875 389.246094 290.539062 389.203125 C 288.769531 389.152344 287.476562 390.355469 286.414062 391.546875 C 284.714844 393.429688 282.46875 394.085938 280.257812 395.015625 C 276.207031 396.726562 272.300781 398.785156 268.316406 400.671875 C 265.492188 402.007812 262.175781 403.003906 259.917969 404.664062 C 255.832031 407.671875 250.289062 406.144531 246.679688 410.058594 C 245.585938 411.25 243.140625 411.390625 241.265625 411.644531 C 236.644531 412.261719 232.535156 415.078125 227.703125 414.710938 C 227.527344 414.699219 227.300781 414.785156 227.164062 414.898438 C 223.070312 418.503906 217.675781 417.226562 213.035156 418.695312 C 208.421875 420.152344 203.726562 419.789062 199.039062 419.808594 C 188.949219 419.867188 178.855469 419.730469 168.773438 420.347656 C 162.527344 420.730469 156.429688 418.996094 150.253906 418.371094 C 149.214844 418.265625 148.171875 418.109375 147.117188 418.085938 C 146.433594 418.070312 145.484375 418.109375 145.335938 417.4375 C 144.65625 414.414062 142.035156 414.6875 139.933594 414.066406 C 137.171875 413.257812 134.390625 412.523438 131.65625 411.636719 C 130.191406 411.164062 129.398438 411.023438 128.601562 412.875 C 127.488281 415.457031 126.828125 411.9375 125.710938 412.328125 C 121.1875 408.472656 118.402344 403.285156 115.457031 398.324219 C 112.789062 393.832031 110.292969 389.152344 108.996094 383.988281 Z M 109.019531 383.980469 " fill-opacity="1" fill-rule="nonzero" /><path fill="#cd3f24" d="M 198.691406 255.628906 C 198.539062 255.078125 198.128906 254.453125 198.269531 253.996094 C 199.90625 248.667969 201.65625 243.367188 204.871094 238.746094 C 206.019531 237.101562 207.574219 235.683594 209.699219 235.296875 C 219.054688 233.582031 225.710938 227.894531 231.492188 220.78125 C 235.210938 216.210938 237.097656 216.121094 241.511719 219.773438 C 241.882812 221.296875 242.253906 222.8125 242.625 224.332031 C 242.109375 234.140625 240.863281 243.765625 235.746094 252.453125 C 234.722656 254.191406 233.617188 255.863281 232.210938 257.320312 C 230.484375 257.398438 229.976562 256.074219 229.578125 254.835938 C 229.171875 253.578125 228.710938 252.332031 228.464844 251.027344 C 228.5625 249.726562 229.421875 248.757812 229.976562 247.65625 C 230.9375 245.753906 231.429688 243.890625 229.976562 242.011719 C 228.496094 240.09375 226.503906 239.347656 224.148438 239.683594 C 220.148438 240.25 216.703125 241.925781 213.753906 244.75 C 211.832031 246.585938 210.359375 248.914062 207.953125 250.242188 C 206.871094 250.617188 205.710938 250.503906 204.605469 250.773438 C 202.210938 251.359375 199.769531 251.851562 199.664062 255.089844 C 199.652344 255.464844 199.222656 255.65625 198.796875 255.574219 L 198.683594 255.632812 Z M 198.691406 255.628906 " fill-opacity="1" fill-rule="nonzero" /><path fill="#48cbbc" d="M 305.230469 386.855469 C 306.25 386.757812 306.753906 387.753906 307.613281 387.988281 C 310.886719 393.789062 314.125 399.609375 317.429688 405.390625 C 319.085938 408.289062 320.851562 411.128906 322.566406 413.996094 C 323.636719 419.507812 323.386719 424.910156 321.464844 430.238281 C 320.8125 432.046875 319.363281 433.464844 319.070312 435.421875 C 309.554688 435.421875 300.039062 435.304688 290.527344 435.488281 C 286.859375 435.558594 283.6875 435.28125 282.101562 431.390625 C 280.773438 429.179688 278.460938 428.359375 276.3125 427.304688 C 275.980469 426.859375 276.339844 425.699219 275.132812 426.183594 C 271.46875 426.183594 267.804688 426.183594 264.140625 426.183594 C 264.082031 424.511719 265.367188 424.476562 266.484375 424.332031 C 267.625 424.183594 268.792969 424.269531 269.933594 424.027344 C 271.78125 423.632812 273.140625 422.839844 273.289062 420.683594 C 273.417969 418.816406 274.285156 417.386719 276.195312 416.785156 C 277.203125 416.46875 277.789062 415.726562 278.101562 414.765625 C 279.367188 410.902344 282.835938 409.722656 286.058594 408.261719 C 287.136719 407.773438 287.84375 408.527344 288.628906 409.09375 C 289.574219 409.78125 290.695312 410.078125 291.304688 408.78125 C 291.839844 407.636719 290.972656 407.050781 289.953125 406.691406 C 289.171875 406.421875 288.03125 406.328125 288.300781 405.132812 C 288.53125 404.089844 289.605469 404.160156 290.453125 404.074219 C 291.316406 403.988281 292.183594 404.003906 293.050781 404.027344 C 295.066406 404.085938 296.628906 403.808594 296.765625 401.1875 C 296.878906 399.15625 298.648438 398.371094 300.375 397.941406 C 301.792969 397.589844 302.289062 396.550781 303.175781 395.601562 C 305.589844 393.027344 305.878906 390.417969 304.941406 387.335938 C 304.894531 387.183594 305.085938 386.996094 305.21875 386.851562 Z M 305.230469 386.855469 " fill-opacity="1" fill-rule="nonzero" /><path fill="#fda532" d="M 256.65625 468.964844 C 252.714844 462.300781 251.375 455.050781 252.167969 447.449219 C 252.8125 441.289062 254.75 435.546875 258.992188 430.800781 C 261.804688 434.042969 263.027344 434.039062 266.257812 430.816406 C 267.546875 429.527344 269.203125 429.433594 270.839844 429.730469 C 272.585938 430.046875 272.574219 431.898438 273.191406 433.066406 C 273.800781 434.210938 272.300781 434.210938 271.617188 434.5625 C 270.75 435.015625 269.066406 434.996094 269.566406 436.398438 C 270.148438 438 271.507812 436.726562 272.519531 436.570312 C 273.335938 436.445312 273.902344 435.886719 274.328125 435.234375 C 275.039062 434.125 276.160156 433.824219 277 434.597656 C 278.042969 435.558594 276.878906 436.316406 276.171875 436.871094 C 272.914062 439.441406 269.621094 441.957031 266.292969 444.523438 C 266.425781 445.164062 266.988281 445.546875 267.625 445.761719 C 270.136719 446.605469 269.703125 448.171875 268.550781 449.773438 C 266.796875 452.203125 266.1875 457.847656 267.894531 460.253906 C 269.390625 462.359375 268.785156 465.378906 271.160156 467.113281 C 271.476562 467.34375 271.507812 469.652344 270.5 469.839844 C 269.058594 470.105469 267.15625 471.480469 265.984375 469.796875 C 264.578125 467.765625 261.695312 468.941406 260.445312 466.800781 C 260.230469 466.4375 259.4375 467.074219 259.003906 467.457031 C 258.304688 468.085938 257.761719 468.964844 256.65625 468.964844 Z M 256.65625 468.964844 " fill-opacity="1" fill-rule="nonzero" /><path fill="#dd8e4d" d="M 196.699219 458.558594 C 188.898438 458.558594 181.09375 458.558594 173.292969 458.558594 C 169.992188 458.558594 169.183594 457.703125 169.296875 454.359375 C 169.304688 454.171875 169.339844 453.980469 169.375 453.789062 C 169.765625 451.539062 169.429688 448.492188 170.769531 447.253906 C 172.140625 445.988281 174.722656 448.148438 176.824219 448.652344 C 188.652344 451.464844 200.648438 452.574219 212.792969 452.15625 C 215.273438 452.070312 217.804688 451.960938 220.210938 451.417969 C 221.941406 451.023438 222.277344 451.476562 222.660156 453.019531 C 224.050781 458.582031 224.125 458.558594 218.367188 458.558594 C 211.140625 458.558594 203.917969 458.558594 196.695312 458.558594 Z M 196.699219 458.558594 " fill-opacity="1" fill-rule="nonzero" /><path fill="#4fcbb6" d="M 305.230469 386.855469 C 305.578125 387.949219 305.855469 389.070312 306.277344 390.136719 C 307.023438 392.003906 306.914062 393.5 304.785156 394.320312 C 304.234375 394.535156 303.511719 394.96875 303.648438 395.484375 C 304.5 398.550781 302.386719 398.175781 300.511719 398.621094 C 298.742188 399.042969 296.820312 399.710938 297.515625 402.5625 C 297.894531 404.144531 296.34375 404.765625 294.828125 404.773438 C 292.84375 404.777344 290.851562 404.773438 288.832031 404.773438 C 288.878906 406.238281 289.761719 405.90625 290.3125 405.914062 C 291.835938 405.925781 292.292969 406.90625 292.449219 408.132812 C 292.566406 409.007812 292.542969 410.03125 291.527344 410.320312 C 290.371094 410.648438 288.710938 411.191406 288.113281 409.945312 C 287.105469 407.832031 286.082031 408.554688 285.117188 409.609375 C 283.8125 411.03125 281.296875 410.058594 280.375 412.378906 C 279.910156 413.550781 278.71875 414.460938 278.582031 415.890625 C 278.464844 417.09375 277.675781 417.503906 276.582031 417.492188 C 274.8125 417.472656 274.316406 418.746094 274.035156 420.105469 C 273.214844 424.152344 272.265625 424.917969 268 425.03125 C 266.644531 425.066406 265.023438 424.4375 264.140625 426.167969 C 263.914062 426.710938 263.535156 427.101562 262.957031 427.28125 C 260.890625 425.175781 260.179688 427.703125 258.945312 428.449219 C 251.339844 421.886719 236.101562 424.015625 232.078125 434.6875 C 230.707031 438.324219 228.390625 441.441406 225.652344 444.09375 C 224.339844 445.367188 222.03125 444.921875 220.175781 445.199219 C 214.261719 446.089844 208.28125 445.96875 202.324219 445.773438 C 196.304688 445.574219 190.339844 444.59375 184.359375 443.875 C 176.441406 442.921875 169.042969 440.1875 161.589844 437.648438 C 159.273438 436.859375 157.1875 435.433594 154.785156 434.789062 C 151.414062 432.695312 148.078125 430.527344 144.644531 428.53125 C 143.140625 427.652344 141.695312 426.757812 140.472656 425.511719 C 139.886719 424.910156 138.347656 424.484375 139.703125 423.40625 C 140.554688 422.730469 141.652344 421.570312 142.996094 422.816406 C 143.136719 422.949219 143.359375 423.066406 143.402344 423.222656 C 144.210938 426.425781 147.742188 426.511719 149.570312 428.585938 C 150.324219 429.433594 151.703125 429.386719 152.472656 428.585938 C 153.890625 427.109375 155.589844 427.253906 157.300781 427.335938 C 162.664062 427.589844 168.070312 426.722656 173.414062 427.820312 C 174.109375 427.964844 175.023438 427.902344 175.195312 427.230469 C 175.925781 424.386719 177.777344 425.402344 179.710938 425.488281 C 185.273438 425.734375 190.835938 425.265625 196.394531 425.078125 C 201.277344 424.917969 206.105469 423.800781 211.042969 424.355469 C 214.3125 424.71875 217.589844 424.410156 220.195312 421.898438 C 220.589844 421.515625 221.242188 421.09375 221.714844 421.152344 C 227.816406 421.902344 233.101562 418.074219 239.320312 418.351562 C 242.984375 418.519531 247.578125 417.78125 250.472656 414.160156 C 250.917969 413.605469 251.761719 413.0625 252.429688 413.050781 C 256.9375 412.957031 260.742188 410.164062 265.203125 409.839844 C 266.667969 409.734375 268.195312 409.230469 268.328125 407.117188 C 268.394531 406.074219 269.40625 405.136719 270.429688 404.929688 C 274.425781 404.109375 277.835938 401.839844 281.632812 400.515625 C 284.132812 399.644531 286.9375 398.675781 287.539062 395.277344 C 287.761719 394.039062 289.097656 393.785156 290.359375 393.773438 C 292.867188 393.753906 295.042969 392.886719 296.761719 390.980469 C 297.589844 390.058594 298.433594 389.246094 299.847656 389.058594 C 301.738281 388.816406 302.796875 387.398438 303.480469 385.703125 C 304.316406 385.703125 304.882812 386.097656 305.210938 386.851562 Z M 305.230469 386.855469 " fill-opacity="1" fill-rule="nonzero" /><path fill="#48cbbc" d="M 258.953125 428.460938 C 259.796875 427.664062 258.894531 425.738281 260.789062 425.617188 C 261.996094 425.542969 262.878906 425.90625 262.96875 427.292969 C 261.4375 427.003906 260.515625 428.828125 258.957031 428.460938 Z M 258.953125 428.460938 " fill-opacity="1" fill-rule="nonzero" /><path fill="#4fcbb6" d="M 275.136719 426.179688 C 275.257812 425.414062 275.507812 424.328125 276.394531 424.800781 C 277.464844 425.378906 276.628906 426.457031 276.316406 427.300781 C 275.734375 427.125 275.363281 426.726562 275.136719 426.179688 Z M 275.136719 426.179688 " fill-opacity="1" fill-rule="nonzero" /><path fill="#602048" d="M 266.40625 205.742188 C 266.546875 200.433594 267.894531 195.703125 270.980469 191.546875 C 277.429688 182.847656 289.695312 182.847656 296.136719 191.546875 C 301.964844 199.417969 301.972656 211.816406 296.148438 219.683594 C 289.335938 228.882812 276.75 228.667969 270.285156 219.226562 C 267.472656 215.113281 266.5 210.464844 266.40625 205.742188 Z M 266.40625 205.742188 " fill-opacity="1" fill-rule="nonzero" class="eye-path" /><path fill="#602047" d="M 133.808594 216.066406 C 133.664062 211.09375 134.726562 206.652344 137.71875 202.894531 C 144.511719 194.351562 156.160156 195.34375 161.289062 205.019531 C 165.339844 212.671875 164.929688 220.492188 160.378906 227.757812 C 154.453125 237.230469 141.261719 236.367188 136.183594 226.386719 C 134.5 223.078125 133.597656 219.578125 133.808594 216.0625 Z M 133.808594 216.066406 " fill-opacity="1" fill-rule="nonzero" class="eye-path" /><path fill="#fe8369" d="M 292.5 239.144531 C 292.039062 231.289062 300.894531 223.167969 309.785156 223.65625 C 318.832031 224.152344 326.0625 230.496094 326.054688 238.929688 C 326.054688 247.519531 318.078125 254.972656 309.039062 254.996094 C 299.210938 255.027344 291.796875 246.832031 292.5 239.144531 Z M 292.5 239.144531 " fill-opacity="1" fill-rule="nonzero" /><path fill="#fe8469" d="M 123.558594 263.683594 C 116.023438 263.804688 109.257812 257.65625 109.046875 249.566406 C 108.863281 242.441406 116.003906 233.972656 125.117188 234.636719 C 132.566406 235.175781 139.136719 241.070312 139.117188 248.234375 C 139.101562 257.019531 132.375 263.699219 123.558594 263.683594 Z M 123.558594 263.683594 " fill-opacity="1" fill-rule="nonzero" /><path fill="#e54829" d="M 198.800781 255.570312 C 200.550781 250.226562 201.175781 249.835938 207.992188 249.796875 C 208.972656 250.699219 208.664062 251.925781 208.792969 253.035156 C 209.140625 255.957031 210.714844 257.488281 213.660156 257.699219 C 218.03125 258.003906 221.71875 256.5 224.917969 253.554688 C 226.070312 252.5 226.984375 250.988281 228.84375 250.960938 C 230.597656 252.746094 229.523438 256.039062 232.226562 257.320312 C 222.84375 269.136719 205.53125 268.230469 198.808594 255.570312 Z M 198.800781 255.570312 " fill-opacity="1" fill-rule="nonzero" /><path fill="#fdc95a" d="M 179.539062 207.101562 C 181.015625 201.800781 183.160156 196.84375 187.601562 193.285156 C 188.996094 192.171875 190.933594 192.007812 192.46875 193.082031 C 193.914062 194.101562 194.054688 195.703125 193.601562 197.457031 C 192.386719 202.167969 190.5625 206.554688 186.847656 209.839844 C 185.4375 211.089844 183.652344 212.300781 181.621094 211.335938 C 180 210.5625 179.578125 208.90625 179.53125 207.101562 Z M 179.539062 207.101562 " fill-opacity="1" fill-rule="nonzero" /><path fill="#fd5a39" d="M 228.835938 250.960938 C 225.421875 254.007812 222.351562 257.667969 217.445312 258.300781 C 214.320312 258.699219 211.027344 259.230469 208.816406 255.980469 C 207.507812 254.054688 208.191406 251.867188 207.992188 249.796875 C 209.839844 247.867188 211.679688 245.941406 213.53125 244.011719 C 216.4375 240.984375 220.125 239.496094 224.175781 238.90625 C 226.945312 238.5 229.269531 239.515625 230.890625 241.84375 C 232.351562 243.949219 231.800781 246.019531 230.609375 248.027344 C 230.023438 249.011719 229.433594 249.988281 228.84375 250.964844 Z M 228.835938 250.960938 " fill-opacity="1" fill-rule="nonzero" /></g></svg>